%TF.GenerationSoftware,Altium Limited,Altium Designer,24.9.1 (31)*%
G04 Layer_Color=0*
%FSLAX45Y45*%
%MOMM*%
%TF.SameCoordinates,7A748296-1A33-4DDC-9E1E-CBF8E45EE968*%
%TF.FilePolarity,Positive*%
%TF.FileFunction,Plated,1,2,PTH,Drill*%
%TF.Part,Single*%
G01*
G75*
%TA.AperFunction,ComponentDrill*%
%ADD120C,1.60000*%
%ADD121C,1.00000*%
%ADD122O,1.27000X2.54000*%
%ADD123O,2.54000X1.27000*%
%ADD124C,0.80000*%
%ADD125C,0.71400*%
%ADD126C,1.10000*%
%ADD127C,1.00000*%
%ADD128C,1.02000*%
%ADD129C,1.30000*%
%TA.AperFunction,OtherDrill,Pad Free-1 (4.5mm,4.5mm)*%
%ADD130C,3.30000*%
%TA.AperFunction,ComponentDrill*%
%ADD131C,2.00000*%
%ADD132C,1.20000*%
%ADD133C,2.50000*%
%TA.AperFunction,ViaDrill,NotFilled*%
%ADD134C,0.25400*%
D120*
X9157062Y647706D02*
D03*
Y266706D02*
D03*
X9141822Y1216666D02*
D03*
Y1597666D02*
D03*
D121*
X2753360Y5321300D02*
D03*
X6500660Y2699460D02*
D03*
Y3715460D02*
D03*
Y6509460D02*
D03*
Y6255460D02*
D03*
Y6001460D02*
D03*
Y5747460D02*
D03*
Y5493460D02*
D03*
Y5239460D02*
D03*
Y4985460D02*
D03*
Y4731460D02*
D03*
Y4477460D02*
D03*
Y4223460D02*
D03*
Y3461460D02*
D03*
Y3207460D02*
D03*
Y2953460D02*
D03*
Y3969460D02*
D03*
X2753360Y5067300D02*
D03*
Y5829300D02*
D03*
Y5575300D02*
D03*
D122*
X518160Y9296400D02*
D03*
X1153160D02*
D03*
D123*
X899160Y8788400D02*
D03*
D124*
X1651400Y8270800D02*
D03*
Y7070800D02*
D03*
D125*
X6054000Y6657340D02*
D03*
X5546000D02*
D03*
X5800000Y6911340D02*
D03*
D126*
X2012640Y6061519D02*
D03*
Y5045519D02*
D03*
Y5299519D02*
D03*
Y5553519D02*
D03*
Y5807519D02*
D03*
Y6315519D02*
D03*
D127*
X236220Y5859780D02*
D03*
X7500620Y640080D02*
D03*
X8008620Y411480D02*
D03*
X6875340Y1619780D02*
D03*
Y1159780D02*
D03*
X236220Y6113780D02*
D03*
Y6367780D02*
D03*
D128*
X1391920Y6438900D02*
D03*
X828040Y5831840D02*
D03*
X2413000Y2458720D02*
D03*
Y2966720D02*
D03*
Y3728720D02*
D03*
Y3474720D02*
D03*
Y3220720D02*
D03*
Y2204720D02*
D03*
Y2712720D02*
D03*
X828040Y6339840D02*
D03*
Y6085840D02*
D03*
X1391920Y6184900D02*
D03*
Y5930900D02*
D03*
Y5676900D02*
D03*
D129*
X5326380Y9311640D02*
D03*
X2862960Y730080D02*
D03*
X3362960D02*
D03*
X5826380Y9311640D02*
D03*
X4089400Y730080D02*
D03*
X4589400D02*
D03*
X1851400Y7682800D02*
D03*
D130*
X450000Y450000D02*
D03*
D131*
X760161Y1428000D02*
D03*
X290161D02*
D03*
X1230161D02*
D03*
D132*
X8725340Y1159780D02*
D03*
X8025340D02*
D03*
X431400Y7070800D02*
D03*
Y8270800D02*
D03*
D133*
X6550660Y9649460D02*
D03*
X9650660D02*
D03*
X9650060Y2178360D02*
D03*
X6550660Y2149460D02*
D03*
D134*
X2296160Y8277860D02*
D03*
X9697720Y9235440D02*
D03*
X9888220Y8854440D02*
D03*
X9697720Y8473440D02*
D03*
X9888220Y8092440D02*
D03*
X9697720Y7711440D02*
D03*
X9888220Y7330440D02*
D03*
X9697720Y6949440D02*
D03*
X9888220Y6568440D02*
D03*
X9697720Y6187440D02*
D03*
X9888220Y5806440D02*
D03*
X9697720Y5425440D02*
D03*
X9888220Y5044440D02*
D03*
X9697720Y4663440D02*
D03*
X9888220Y4282440D02*
D03*
X9697720Y3901440D02*
D03*
X9888220Y3520440D02*
D03*
X9697720Y3139440D02*
D03*
X9888220Y2758440D02*
D03*
X9316720Y9235440D02*
D03*
X9507220Y8854440D02*
D03*
X9316720Y8473440D02*
D03*
X9507220Y8092440D02*
D03*
X9316720Y7711440D02*
D03*
X9507220Y7330440D02*
D03*
X9316720Y6949440D02*
D03*
X9507220Y6568440D02*
D03*
X9316720Y6187440D02*
D03*
X9507220Y5806440D02*
D03*
X9316720Y5425440D02*
D03*
X9507220Y5044440D02*
D03*
X9316720Y4663440D02*
D03*
X9507220Y4282440D02*
D03*
X9316720Y3901440D02*
D03*
X9507220Y3520440D02*
D03*
X9316720Y3139440D02*
D03*
X9507220Y2758440D02*
D03*
X9316720Y2377440D02*
D03*
X9126220Y9616440D02*
D03*
X8935720Y9235440D02*
D03*
X9126220Y8854440D02*
D03*
X8935720Y8473440D02*
D03*
X9126220Y8092440D02*
D03*
X8935720Y7711440D02*
D03*
X9126220Y7330440D02*
D03*
X8935720Y6949440D02*
D03*
X9126220Y6568440D02*
D03*
X8935720Y6187440D02*
D03*
X9126220Y5806440D02*
D03*
X8935720Y5425440D02*
D03*
X9126220Y5044440D02*
D03*
X8935720Y4663440D02*
D03*
X9126220Y4282440D02*
D03*
X8935720Y3901440D02*
D03*
X9126220Y3520440D02*
D03*
X8935720Y3139440D02*
D03*
X9126220Y2758440D02*
D03*
X8935720Y2377440D02*
D03*
X8745220Y9616440D02*
D03*
X8554720Y9235440D02*
D03*
X8745220Y8854440D02*
D03*
X8554720Y8473440D02*
D03*
X8745220Y8092440D02*
D03*
X8554720Y7711440D02*
D03*
X8745220Y7330440D02*
D03*
X8554720Y6949440D02*
D03*
X8745220Y6568440D02*
D03*
X8554720Y6187440D02*
D03*
X8745220Y5806440D02*
D03*
X8554720Y5425440D02*
D03*
X8745220Y5044440D02*
D03*
X8554720Y4663440D02*
D03*
X8745220Y4282440D02*
D03*
X8554720Y3901440D02*
D03*
X8745220Y3520440D02*
D03*
X8554720Y3139440D02*
D03*
X8745220Y2758440D02*
D03*
X8554720Y2377440D02*
D03*
X8364220Y9616440D02*
D03*
X8173720Y9235440D02*
D03*
X8364220Y8854440D02*
D03*
X8173720Y8473440D02*
D03*
X8364220Y8092440D02*
D03*
X8173720Y7711440D02*
D03*
X8364220Y7330440D02*
D03*
X8173720Y6949440D02*
D03*
X8364220Y6568440D02*
D03*
X8173720Y6187440D02*
D03*
X8364220Y5806440D02*
D03*
X8173720Y5425440D02*
D03*
X8364220Y5044440D02*
D03*
X8173720Y4663440D02*
D03*
X8364220Y4282440D02*
D03*
X8173720Y3901440D02*
D03*
X8364220Y3520440D02*
D03*
X8173720Y3139440D02*
D03*
X8364220Y2758440D02*
D03*
X8173720Y2377440D02*
D03*
X7983220Y9616440D02*
D03*
X7792720Y9235440D02*
D03*
X7983220Y8854440D02*
D03*
X7792720Y8473440D02*
D03*
X7983220Y8092440D02*
D03*
X7792720Y7711440D02*
D03*
X7983220Y7330440D02*
D03*
X7792720Y6949440D02*
D03*
X7983220Y6568440D02*
D03*
X7792720Y6187440D02*
D03*
X7983220Y5806440D02*
D03*
X7792720Y5425440D02*
D03*
X7983220Y5044440D02*
D03*
X7792720Y4663440D02*
D03*
X7983220Y4282440D02*
D03*
X7792720Y3901440D02*
D03*
X7983220Y3520440D02*
D03*
X7792720Y3139440D02*
D03*
X7983220Y2758440D02*
D03*
X7792720Y2377440D02*
D03*
X7602220Y9616440D02*
D03*
X7411720Y9235440D02*
D03*
X7602220Y8854440D02*
D03*
X7411720Y8473440D02*
D03*
X7602220Y8092440D02*
D03*
X7411720Y7711440D02*
D03*
X7602220Y7330440D02*
D03*
X7411720Y6949440D02*
D03*
X7602220Y6568440D02*
D03*
X7411720Y6187440D02*
D03*
X7602220Y5806440D02*
D03*
X7411720Y5425440D02*
D03*
X7602220Y5044440D02*
D03*
X7411720Y4663440D02*
D03*
X7602220Y4282440D02*
D03*
X7411720Y3901440D02*
D03*
X7602220Y3520440D02*
D03*
X7411720Y3139440D02*
D03*
X7602220Y2758440D02*
D03*
X7411720Y2377440D02*
D03*
X7221220Y9616440D02*
D03*
X7030720Y9235440D02*
D03*
X7221220Y8854440D02*
D03*
Y8092440D02*
D03*
Y7330440D02*
D03*
Y6568440D02*
D03*
Y5806440D02*
D03*
Y5044440D02*
D03*
Y4282440D02*
D03*
Y3520440D02*
D03*
Y2758440D02*
D03*
X6649720Y9235440D02*
D03*
Y8473440D02*
D03*
X6840220Y8092440D02*
D03*
X6649720Y7711440D02*
D03*
X6840220Y7330440D02*
D03*
X6649720Y6949440D02*
D03*
X6840220Y2758440D02*
D03*
X6459220Y8854440D02*
D03*
Y8092440D02*
D03*
Y7330440D02*
D03*
X6268720Y3901440D02*
D03*
Y3139440D02*
D03*
X6078220Y8854440D02*
D03*
Y7330440D02*
D03*
X5887720Y4663440D02*
D03*
X6078220Y4282440D02*
D03*
X5887720Y3901440D02*
D03*
X6078220Y3520440D02*
D03*
X5887720Y3139440D02*
D03*
Y2377440D02*
D03*
X5506720Y9235440D02*
D03*
X5697220Y8854440D02*
D03*
Y6568440D02*
D03*
X5506720Y6187440D02*
D03*
X5697220Y4282440D02*
D03*
X5316220Y8854440D02*
D03*
Y5806440D02*
D03*
Y5044440D02*
D03*
Y4282440D02*
D03*
X5125720Y3901440D02*
D03*
X5316220Y3520440D02*
D03*
X5125720Y3139440D02*
D03*
X5316220Y2758440D02*
D03*
X5125720Y2377440D02*
D03*
X5316220Y1996440D02*
D03*
X5125720Y1615440D02*
D03*
X5316220Y1234440D02*
D03*
X5125720Y91440D02*
D03*
X4935220Y7330440D02*
D03*
X4744720Y6949440D02*
D03*
X4935220Y6568440D02*
D03*
Y4282440D02*
D03*
X4744720Y3901440D02*
D03*
X4935220Y3520440D02*
D03*
X4744720Y3139440D02*
D03*
X4935220Y2758440D02*
D03*
X4744720Y2377440D02*
D03*
X4935220Y1996440D02*
D03*
X4744720Y1615440D02*
D03*
X4935220Y1234440D02*
D03*
X4744720Y91440D02*
D03*
X4363720Y7711440D02*
D03*
X4554220Y7330440D02*
D03*
X4363720Y6949440D02*
D03*
X4554220Y4282440D02*
D03*
Y3520440D02*
D03*
Y2758440D02*
D03*
Y1996440D02*
D03*
X4363720Y853440D02*
D03*
Y91440D02*
D03*
X3982720Y9235440D02*
D03*
X4173220Y7330440D02*
D03*
X3982720Y3901440D02*
D03*
X4173220Y3520440D02*
D03*
X3982720Y3139440D02*
D03*
X4173220Y2758440D02*
D03*
X3982720Y2377440D02*
D03*
X4173220Y1996440D02*
D03*
X3982720Y1615440D02*
D03*
Y91440D02*
D03*
X3601720Y8473440D02*
D03*
X3792220Y8092440D02*
D03*
Y7330440D02*
D03*
X3601720Y6949440D02*
D03*
X3792220Y6568440D02*
D03*
Y3520440D02*
D03*
X3601720Y3139440D02*
D03*
X3792220Y2758440D02*
D03*
X3601720Y2377440D02*
D03*
X3792220Y1996440D02*
D03*
X3601720Y1615440D02*
D03*
X3792220Y1234440D02*
D03*
Y472440D02*
D03*
X3601720Y91440D02*
D03*
X3220720Y9235440D02*
D03*
X3411220Y8092440D02*
D03*
Y7330440D02*
D03*
X3220720Y6949440D02*
D03*
Y4663440D02*
D03*
X3411220Y4282440D02*
D03*
X3220720Y3901440D02*
D03*
X3411220Y3520440D02*
D03*
X3220720Y3139440D02*
D03*
X3411220Y2758440D02*
D03*
X3220720Y2377440D02*
D03*
X3411220Y1996440D02*
D03*
X3220720Y1615440D02*
D03*
Y91440D02*
D03*
X2839720Y7711440D02*
D03*
X3030220Y7330440D02*
D03*
X2839720Y6949440D02*
D03*
X3030220Y5806440D02*
D03*
Y4282440D02*
D03*
X2839720Y3901440D02*
D03*
X3030220Y3520440D02*
D03*
Y2758440D02*
D03*
X2839720Y2377440D02*
D03*
X3030220Y1996440D02*
D03*
X2839720Y1615440D02*
D03*
X3030220Y472440D02*
D03*
X2839720Y91440D02*
D03*
X2649220Y7330440D02*
D03*
X2458720Y6949440D02*
D03*
X2649220Y6568440D02*
D03*
X2458720Y5425440D02*
D03*
X2649220Y4282440D02*
D03*
X2458720Y3901440D02*
D03*
X2649220Y3520440D02*
D03*
Y2758440D02*
D03*
Y1996440D02*
D03*
X2458720Y1615440D02*
D03*
X2649220Y1234440D02*
D03*
X2458720Y853440D02*
D03*
X2649220Y472440D02*
D03*
X2458720Y91440D02*
D03*
X2268220Y8854440D02*
D03*
X2077720Y7711440D02*
D03*
X2268220Y7330440D02*
D03*
X2077720Y6949440D02*
D03*
X2268220Y6568440D02*
D03*
X2077720Y6187440D02*
D03*
X2268220Y5806440D02*
D03*
X2077720Y5425440D02*
D03*
X2268220Y4282440D02*
D03*
X2077720Y3901440D02*
D03*
Y3139440D02*
D03*
X2268220Y2758440D02*
D03*
X2077720Y2377440D02*
D03*
X2268220Y1996440D02*
D03*
X2077720Y1615440D02*
D03*
X2268220Y1234440D02*
D03*
X2077720Y853440D02*
D03*
Y91440D02*
D03*
X1696720Y9235440D02*
D03*
Y8473440D02*
D03*
X1887220Y7330440D02*
D03*
Y6568440D02*
D03*
Y2758440D02*
D03*
Y1996440D02*
D03*
Y1234440D02*
D03*
X1696720Y853440D02*
D03*
X1887220Y472440D02*
D03*
X1696720Y91440D02*
D03*
X1506220Y8092440D02*
D03*
Y7330440D02*
D03*
X1315720Y6949440D02*
D03*
X1506220Y6568440D02*
D03*
Y5806440D02*
D03*
X1315720Y3139440D02*
D03*
Y1615440D02*
D03*
Y853440D02*
D03*
X1506220Y472440D02*
D03*
X1315720Y91440D02*
D03*
X934720Y8473440D02*
D03*
X1125220Y8092440D02*
D03*
Y7330440D02*
D03*
X934720Y6949440D02*
D03*
X1125220Y6568440D02*
D03*
X934720Y6187440D02*
D03*
X1125220Y5806440D02*
D03*
X934720Y3901440D02*
D03*
X1125220Y3520440D02*
D03*
X934720Y3139440D02*
D03*
X1125220Y2758440D02*
D03*
Y1996440D02*
D03*
X934720Y1615440D02*
D03*
Y853440D02*
D03*
X1125220Y472440D02*
D03*
X934720Y91440D02*
D03*
X744220Y9616440D02*
D03*
X553720Y8473440D02*
D03*
X744220Y7330440D02*
D03*
X553720Y6949440D02*
D03*
X744220Y6568440D02*
D03*
X553720Y4663440D02*
D03*
Y3901440D02*
D03*
Y3139440D02*
D03*
X744220Y2758440D02*
D03*
X553720Y2377440D02*
D03*
X744220Y1996440D02*
D03*
X553720Y1615440D02*
D03*
Y853440D02*
D03*
X744220Y472440D02*
D03*
X553720Y91440D02*
D03*
X363220Y9616440D02*
D03*
X172720Y9235440D02*
D03*
X363220Y8854440D02*
D03*
X172720Y8473440D02*
D03*
X363220Y8092440D02*
D03*
X172720Y7711440D02*
D03*
Y6949440D02*
D03*
X363220Y6568440D02*
D03*
Y5806440D02*
D03*
Y4282440D02*
D03*
X172720Y3901440D02*
D03*
Y3139440D02*
D03*
X363220Y2758440D02*
D03*
Y1996440D02*
D03*
X172720Y1615440D02*
D03*
Y853440D02*
D03*
Y91440D02*
D03*
X3649980Y4363720D02*
D03*
X3759200Y4599940D02*
D03*
X1610360Y5532120D02*
D03*
X1783080Y5539740D02*
D03*
X1866900Y5542280D02*
D03*
X1699260Y5676900D02*
D03*
Y6670040D02*
D03*
X4787900Y9039860D02*
D03*
X4788594Y8591533D02*
D03*
X3766820Y5191760D02*
D03*
X4135120Y5384800D02*
D03*
X3853180Y4866640D02*
D03*
X5410200Y5661660D02*
D03*
X4823391Y4534112D02*
D03*
X4221480Y6319520D02*
D03*
X6459220Y777240D02*
D03*
X5394960Y452120D02*
D03*
X4541520Y6268720D02*
D03*
X4820920Y4754880D02*
D03*
X4401820Y5382260D02*
D03*
X4853940Y5557520D02*
D03*
X4457760Y5443160D02*
D03*
X4531360Y4678680D02*
D03*
X4184849D02*
D03*
X4940300Y5496560D02*
D03*
X4544060Y5163820D02*
D03*
X4714240Y4757420D02*
D03*
X3431540Y8280400D02*
D03*
X1696720Y3774440D02*
D03*
X6261100Y3586480D02*
D03*
X6842760Y3599180D02*
D03*
X4338320Y6413500D02*
D03*
X1493520Y2679700D02*
D03*
X1432560Y3774440D02*
D03*
X1551940Y1894840D02*
D03*
X5648960Y5255260D02*
D03*
X3380740Y6126480D02*
D03*
X5097780Y6906260D02*
D03*
X4244340Y6413500D02*
D03*
X4160520Y5882640D02*
D03*
X4407740Y5808140D02*
D03*
X3843020Y6126480D02*
D03*
X3421380Y5671820D02*
D03*
X3853180Y5009080D02*
D03*
X2755900Y6319520D02*
D03*
Y6126480D02*
D03*
X1231900Y4757420D02*
D03*
X6248400Y4132580D02*
D03*
X5459401Y1281604D02*
D03*
X3800000Y5497000D02*
D03*
Y5586211D02*
D03*
X4533900Y5473700D02*
D03*
X4884420Y5991860D02*
D03*
X3515360Y5191760D02*
D03*
X3522980Y6012180D02*
D03*
X4466160Y5986780D02*
D03*
X5783249Y4874876D02*
D03*
X3520440Y4678680D02*
D03*
X4544060Y5986780D02*
D03*
X3853180Y5191760D02*
D03*
X3800000Y5334000D02*
D03*
Y5420360D02*
D03*
%TF.MD5,29c011cad269714058391a6801b32c37*%
M02*
