%TF.GenerationSoftware,Altium Limited,Altium Designer,24.9.1 (31)*%
G04 Layer_Color=8388736*
%FSLAX45Y45*%
%MOMM*%
%TF.SameCoordinates,7A748296-1A33-4DDC-9E1E-CBF8E45EE968*%
%TF.FilePolarity,Negative*%
%TF.FileFunction,Soldermask,Top*%
%TF.Part,Single*%
G01*
G75*
%TA.AperFunction,SMDPad,CuDef*%
%ADD28R,2.20000X1.60000*%
%ADD77R,0.75320X1.10320*%
%ADD78R,1.30320X1.40320*%
%ADD79R,1.80320X2.80320*%
%ADD80R,2.30320X1.75320*%
%ADD81R,1.05320X1.40320*%
%ADD82C,1.70320*%
%ADD83O,1.70320X0.80320*%
%ADD84R,1.80320X3.40320*%
%ADD85R,2.35320X1.10320*%
%ADD86R,3.20320X1.20320*%
%ADD87R,1.20320X1.90320*%
%ADD88R,1.10320X0.75320*%
G04:AMPARAMS|DCode=89|XSize=1.6932mm|YSize=0.4832mm|CornerRadius=0.1716mm|HoleSize=0mm|Usage=FLASHONLY|Rotation=90.000|XOffset=0mm|YOffset=0mm|HoleType=Round|Shape=RoundedRectangle|*
%AMROUNDEDRECTD89*
21,1,1.69320,0.14000,0,0,90.0*
21,1,1.35000,0.48320,0,0,90.0*
1,1,0.34320,0.07000,0.67500*
1,1,0.34320,0.07000,-0.67500*
1,1,0.34320,-0.07000,-0.67500*
1,1,0.34320,-0.07000,0.67500*
%
%ADD89ROUNDEDRECTD89*%
G04:AMPARAMS|DCode=90|XSize=1.6932mm|YSize=0.4832mm|CornerRadius=0.1716mm|HoleSize=0mm|Usage=FLASHONLY|Rotation=0.000|XOffset=0mm|YOffset=0mm|HoleType=Round|Shape=RoundedRectangle|*
%AMROUNDEDRECTD90*
21,1,1.69320,0.14000,0,0,0.0*
21,1,1.35000,0.48320,0,0,0.0*
1,1,0.34320,0.67500,-0.07000*
1,1,0.34320,-0.67500,-0.07000*
1,1,0.34320,-0.67500,0.07000*
1,1,0.34320,0.67500,0.07000*
%
%ADD90ROUNDEDRECTD90*%
%ADD91R,1.40320X1.30320*%
%ADD92R,4.00320X2.10320*%
%ADD93R,1.90320X2.60320*%
%ADD94R,2.35320X3.45320*%
%ADD95R,1.72720X3.75920*%
%TA.AperFunction,ComponentPad*%
%ADD96C,2.40320*%
G04:AMPARAMS|DCode=97|XSize=2.4032mm|YSize=2.4032mm|CornerRadius=0.6516mm|HoleSize=0mm|Usage=FLASHONLY|Rotation=90.000|XOffset=0mm|YOffset=0mm|HoleType=Round|Shape=RoundedRectangle|*
%AMROUNDEDRECTD97*
21,1,2.40320,1.10000,0,0,90.0*
21,1,1.10000,2.40320,0,0,90.0*
1,1,1.30320,0.55000,0.55000*
1,1,1.30320,0.55000,-0.55000*
1,1,1.30320,-0.55000,-0.55000*
1,1,1.30320,-0.55000,0.55000*
%
%ADD97ROUNDEDRECTD97*%
%ADD98C,1.70320*%
%ADD99R,2.74320X4.26720*%
%ADD100R,4.26720X2.74320*%
%ADD101C,1.51120*%
%ADD102C,1.42520*%
%ADD103C,1.80320*%
%ADD104O,1.70320X2.20320*%
%ADD105C,1.72320*%
%ADD106C,2.15320*%
%ADD107R,1.71120X1.71120*%
%ADD108C,1.71120*%
%ADD109R,1.72320X1.72320*%
%TA.AperFunction,ViaPad*%
%ADD110C,1.72720*%
%TA.AperFunction,ComponentPad*%
%ADD111C,3.20000*%
%ADD112C,2.00320*%
%ADD113R,2.15320X2.15320*%
%ADD114O,2.20320X2.40320*%
%ADD115C,5.20320*%
%ADD116R,1.80320X1.80320*%
%ADD117R,1.42520X1.42520*%
%ADD118R,1.70320X1.70320*%
D28*
X5685790Y1516380D02*
D03*
Y1262380D02*
D03*
X6572250D02*
D03*
Y1516380D02*
D03*
D77*
X4029600Y9357360D02*
D03*
X4174600D02*
D03*
X5390180Y8663940D02*
D03*
X5535180D02*
D03*
X2401460Y8821420D02*
D03*
X3306240Y9172213D02*
D03*
X3018900Y8822267D02*
D03*
X3306240Y8820846D02*
D03*
X2874440Y8469480D02*
D03*
X3785760D02*
D03*
X3458320Y8470900D02*
D03*
X4781660Y8821420D02*
D03*
X4789280Y9525000D02*
D03*
X2790080Y1305080D02*
D03*
X3018900Y9525000D02*
D03*
Y9173260D02*
D03*
X2549000Y8470900D02*
D03*
X3313320Y7197240D02*
D03*
X3021860D02*
D03*
X2404540Y7195820D02*
D03*
X307340Y6697980D02*
D03*
X161180Y5443220D02*
D03*
X462280Y4330700D02*
D03*
Y3230880D02*
D03*
X462820Y2129640D02*
D03*
X4017170Y1305080D02*
D03*
X1743820Y1234440D02*
D03*
Y1630680D02*
D03*
X1598820D02*
D03*
Y1234440D02*
D03*
X6453824Y897740D02*
D03*
X6308824D02*
D03*
X5797440Y899160D02*
D03*
X5942440D02*
D03*
X4517170Y1305080D02*
D03*
X4662170D02*
D03*
X4162170D02*
D03*
X607820Y2129640D02*
D03*
X607280Y3230880D02*
D03*
Y4330700D02*
D03*
X1501900Y3550776D02*
D03*
X1356900D02*
D03*
X755540Y5443220D02*
D03*
X900540D02*
D03*
X306180D02*
D03*
X900810Y6685280D02*
D03*
X755810D02*
D03*
X162340Y6697980D02*
D03*
X2549540Y7195820D02*
D03*
X2876860Y7197240D02*
D03*
X3458320D02*
D03*
X2404000Y8470900D02*
D03*
X2873900Y9173260D02*
D03*
Y9525000D02*
D03*
X2935080Y1305080D02*
D03*
X3290190Y1306500D02*
D03*
X3435190D02*
D03*
X1356360Y2903363D02*
D03*
X1501360D02*
D03*
X1501900Y4649609D02*
D03*
X1356900D02*
D03*
X4644280Y9525000D02*
D03*
X4789820Y9172213D02*
D03*
X4644820D02*
D03*
X4644280Y8470900D02*
D03*
X4789280D02*
D03*
X4636660Y8821420D02*
D03*
X3313320Y8470900D02*
D03*
X4360290Y8469480D02*
D03*
X4215290D02*
D03*
X3930760D02*
D03*
X3019440D02*
D03*
X3451240Y8820846D02*
D03*
X2873900Y8822267D02*
D03*
X1356900Y2452653D02*
D03*
X1501900D02*
D03*
X1501360Y5101028D02*
D03*
X1356360D02*
D03*
X1501360Y4002196D02*
D03*
X1356360D02*
D03*
X3451240Y9172213D02*
D03*
X2546460Y8821420D02*
D03*
X3450700Y9525000D02*
D03*
X3305700D02*
D03*
D78*
X5981700Y8663940D02*
D03*
X5771700D02*
D03*
X3806600Y7203440D02*
D03*
X4016600D02*
D03*
D79*
X2428240Y9197680D02*
D03*
Y9557680D02*
D03*
D80*
X3889720Y9636760D02*
D03*
X1541170Y8864600D02*
D03*
X5690950Y543560D02*
D03*
X6130950D02*
D03*
X1981170Y8864600D02*
D03*
X4329720Y9636760D02*
D03*
D81*
X5043905Y668020D02*
D03*
X2237740D02*
D03*
X6457310D02*
D03*
X6646291Y668561D02*
D03*
X6551290Y418559D02*
D03*
X2426721Y668561D02*
D03*
X2331720Y418559D02*
D03*
X5137885D02*
D03*
X5232886Y668561D02*
D03*
D82*
X1902460Y762000D02*
D03*
X5748020Y2138680D02*
D03*
Y4127500D02*
D03*
X5745480Y3586480D02*
D03*
X5748020Y2776220D02*
D03*
D83*
X4364400Y9004300D02*
D03*
Y8750300D02*
D03*
Y8877300D02*
D03*
Y9131300D02*
D03*
X3814400Y8750300D02*
D03*
Y8877300D02*
D03*
Y9004300D02*
D03*
Y9131300D02*
D03*
D84*
X4061460Y7547640D02*
D03*
X4678680D02*
D03*
Y8027640D02*
D03*
X4061460D02*
D03*
D85*
X2912480Y8047120D02*
D03*
Y7589120D02*
D03*
Y7818120D02*
D03*
D86*
X257621Y4650319D02*
D03*
X857621D02*
D03*
X257621Y3551486D02*
D03*
X857621D02*
D03*
X257621Y2452653D02*
D03*
X857621D02*
D03*
Y2902653D02*
D03*
X257621D02*
D03*
X857621Y4001486D02*
D03*
X257621D02*
D03*
X857621Y5100319D02*
D03*
X257621D02*
D03*
D87*
X4460000Y6455000D02*
D03*
Y7085000D02*
D03*
X4840000Y6455000D02*
D03*
Y7085000D02*
D03*
D88*
X5516880Y4995221D02*
D03*
X2722880Y6507800D02*
D03*
X3655060Y6652260D02*
D03*
X3954780D02*
D03*
X4207030D02*
D03*
X3380740Y5802520D02*
D03*
Y5190180D02*
D03*
X3660140D02*
D03*
X3662680Y5806440D02*
D03*
X5408548Y5788653D02*
D03*
X5655105D02*
D03*
X5901663D02*
D03*
X4066540Y4533680D02*
D03*
X4307740D02*
D03*
X4957740Y4532520D02*
D03*
X5181600D02*
D03*
X1958340Y2339560D02*
D03*
Y2194560D02*
D03*
X5181600Y4677520D02*
D03*
X4957740D02*
D03*
X4307740Y4678680D02*
D03*
X4066540D02*
D03*
X6146800Y5788113D02*
D03*
Y5933113D02*
D03*
X5901663Y5933653D02*
D03*
X5655105D02*
D03*
X5408548D02*
D03*
X3662680Y5951440D02*
D03*
X3660140Y5335180D02*
D03*
X3380740D02*
D03*
X5316220Y6652800D02*
D03*
Y6507800D02*
D03*
X3380740Y5947520D02*
D03*
X5095240Y6652800D02*
D03*
Y6507800D02*
D03*
X4207030Y6507260D02*
D03*
X3954780D02*
D03*
X3655060D02*
D03*
X2722880Y6652800D02*
D03*
X5781040Y4995221D02*
D03*
Y5140221D02*
D03*
X5516880Y5140221D02*
D03*
D89*
X4257740Y6127180D02*
D03*
X4907740Y4993180D02*
D03*
X4257740D02*
D03*
X4207740D02*
D03*
X4307740D02*
D03*
X4357740D02*
D03*
X4407740D02*
D03*
X4457740D02*
D03*
X4507740D02*
D03*
X4557740D02*
D03*
X4607740D02*
D03*
X4657740D02*
D03*
X4707740D02*
D03*
X4757740D02*
D03*
X4807740D02*
D03*
X4857740D02*
D03*
X4957740D02*
D03*
Y6127180D02*
D03*
X4907740D02*
D03*
X4857740D02*
D03*
X4807740D02*
D03*
X4757740D02*
D03*
X4707740D02*
D03*
X4657740D02*
D03*
X4607740D02*
D03*
X4557740D02*
D03*
X4507740D02*
D03*
X4457740D02*
D03*
X4407740D02*
D03*
X4357740D02*
D03*
X4307740D02*
D03*
X4207740D02*
D03*
D90*
X5149740Y5885180D02*
D03*
X4015740Y5385180D02*
D03*
Y5935180D02*
D03*
Y5885180D02*
D03*
Y5835180D02*
D03*
Y5785180D02*
D03*
Y5735180D02*
D03*
Y5685180D02*
D03*
Y5635180D02*
D03*
Y5585180D02*
D03*
Y5535180D02*
D03*
Y5485180D02*
D03*
Y5435180D02*
D03*
Y5335180D02*
D03*
Y5285180D02*
D03*
Y5235180D02*
D03*
Y5185180D02*
D03*
X5149740D02*
D03*
Y5235180D02*
D03*
Y5285180D02*
D03*
Y5335180D02*
D03*
Y5385180D02*
D03*
Y5435180D02*
D03*
Y5485180D02*
D03*
Y5535180D02*
D03*
Y5585180D02*
D03*
Y5635180D02*
D03*
Y5685180D02*
D03*
Y5735180D02*
D03*
Y5785180D02*
D03*
Y5835180D02*
D03*
Y5935180D02*
D03*
D91*
X6027160Y4945940D02*
D03*
Y5155940D02*
D03*
X2580640Y7935820D02*
D03*
Y7725820D02*
D03*
X2293620Y7735980D02*
D03*
Y7945980D02*
D03*
D92*
X5694680Y7411840D02*
D03*
Y8371840D02*
D03*
D93*
X3370160Y6593840D02*
D03*
X3000160D02*
D03*
D94*
X3498480Y7818120D02*
D03*
D95*
X1955800Y9481820D02*
D03*
X1535660D02*
D03*
D96*
X9157062Y647706D02*
D03*
X9141822Y1597666D02*
D03*
D97*
X9157062Y266706D02*
D03*
X9141822Y1216666D02*
D03*
D98*
X2753360Y5321300D02*
D03*
Y5067300D02*
D03*
Y5575300D02*
D03*
D99*
X518160Y9296400D02*
D03*
X1153160D02*
D03*
D100*
X899160Y8788400D02*
D03*
D101*
X1651400Y8270800D02*
D03*
Y7070800D02*
D03*
D102*
X6054000Y6657340D02*
D03*
X5800000Y6911340D02*
D03*
D103*
X2012640Y6061519D02*
D03*
Y5045519D02*
D03*
Y5299519D02*
D03*
Y5553519D02*
D03*
Y5807519D02*
D03*
D104*
X236220Y5859780D02*
D03*
Y6113780D02*
D03*
Y6367780D02*
D03*
D105*
X1391920Y6438900D02*
D03*
X828040Y5831840D02*
D03*
X2413000Y2458720D02*
D03*
Y2966720D02*
D03*
Y3728720D02*
D03*
Y3474720D02*
D03*
Y3220720D02*
D03*
Y2712720D02*
D03*
X828040Y6085840D02*
D03*
X1391920Y6184900D02*
D03*
Y5930900D02*
D03*
D106*
X5326380Y9311640D02*
D03*
X3362960Y730080D02*
D03*
X4589400D02*
D03*
X1851400Y7682800D02*
D03*
D107*
X6500660Y2699460D02*
D03*
D108*
Y3715460D02*
D03*
Y6509460D02*
D03*
Y6255460D02*
D03*
Y6001460D02*
D03*
Y5747460D02*
D03*
Y5493460D02*
D03*
Y5239460D02*
D03*
Y4985460D02*
D03*
Y4731460D02*
D03*
Y4477460D02*
D03*
Y4223460D02*
D03*
Y3461460D02*
D03*
Y3207460D02*
D03*
Y2953460D02*
D03*
Y3969460D02*
D03*
D109*
X2413000Y2204720D02*
D03*
X828040Y6339840D02*
D03*
X1391920Y5676900D02*
D03*
D110*
X450000Y450000D02*
D03*
D111*
X760161Y1428000D02*
D03*
X290161D02*
D03*
X1230161D02*
D03*
D112*
X7500620Y640080D02*
D03*
X8008620Y411480D02*
D03*
X6875340Y1619780D02*
D03*
Y1159780D02*
D03*
X431400Y7070800D02*
D03*
Y8270800D02*
D03*
D113*
X2862960Y730080D02*
D03*
X5826380Y9311640D02*
D03*
X4089400Y730080D02*
D03*
D114*
X8725340Y1159780D02*
D03*
X8025340D02*
D03*
D115*
X6550660Y9649460D02*
D03*
X9650660D02*
D03*
X9650060Y2178360D02*
D03*
X6550660Y2149460D02*
D03*
D116*
X2012640Y6315519D02*
D03*
D117*
X5546000Y6657340D02*
D03*
D118*
X2753360Y5829300D02*
D03*
%TF.MD5,2f4f8646e2d48c48a4ba82bd0f9b039b*%
M02*
