%TF.GenerationSoftware,Altium Limited,Altium Designer,24.9.1 (31)*%
G04 Layer_Color=255*
%FSLAX45Y45*%
%MOMM*%
%TF.SameCoordinates,54C84388-69FA-44E8-9161-08C7B8D1B229*%
%TF.FilePolarity,Positive*%
%TF.FileFunction,Pads,Bot*%
%TF.Part,Single*%
G01*
G75*
%TA.AperFunction,ViaPad*%
%ADD39C,1.52400*%
%TA.AperFunction,ComponentPad*%
%ADD40C,3.00000*%
%ADD41C,1.52000*%
%ADD42R,1.52000X1.52000*%
%ADD43C,1.80000*%
%ADD44R,1.95000X1.95000*%
%ADD45C,1.95000*%
%ADD46O,2.00000X2.20000*%
%ADD47C,5.00000*%
%ADD48C,1.50800*%
%ADD49R,1.50800X1.50800*%
%ADD50O,1.50000X2.00000*%
%ADD51C,1.60000*%
%ADD52R,1.60000X1.60000*%
%ADD53R,1.22200X1.22200*%
%ADD54C,1.22200*%
%ADD55C,1.30800*%
%ADD56R,4.06400X2.54000*%
%ADD57R,2.54000X4.06400*%
%ADD58C,1.50000*%
%ADD59R,1.50000X1.50000*%
G04:AMPARAMS|DCode=60|XSize=2.2mm|YSize=2.2mm|CornerRadius=0.55mm|HoleSize=0mm|Usage=FLASHONLY|Rotation=90.000|XOffset=0mm|YOffset=0mm|HoleType=Round|Shape=RoundedRectangle|*
%AMROUNDEDRECTD60*
21,1,2.20000,1.10000,0,0,90.0*
21,1,1.10000,2.20000,0,0,90.0*
1,1,1.10000,0.55000,0.55000*
1,1,1.10000,0.55000,-0.55000*
1,1,1.10000,-0.55000,-0.55000*
1,1,1.10000,-0.55000,0.55000*
%
%ADD60ROUNDEDRECTD60*%
%ADD61C,2.20000*%
D39*
X450000Y450000D02*
D03*
D40*
X760161Y1428000D02*
D03*
X290161D02*
D03*
X1230161D02*
D03*
D41*
X2552700Y3004820D02*
D03*
Y2242820D02*
D03*
Y2496820D02*
D03*
Y2750820D02*
D03*
Y3512820D02*
D03*
Y3258820D02*
D03*
X828040Y6085840D02*
D03*
Y5831840D02*
D03*
X1391920Y6438900D02*
D03*
Y6184900D02*
D03*
Y5930900D02*
D03*
D42*
X2552700Y3766820D02*
D03*
X828040Y6339840D02*
D03*
X1391920Y5676900D02*
D03*
D43*
X7500620Y640080D02*
D03*
X8008620Y411480D02*
D03*
X6875340Y1619780D02*
D03*
Y1159780D02*
D03*
X431400Y7070800D02*
D03*
Y8270800D02*
D03*
D44*
X2862960Y730080D02*
D03*
X5826380Y9311640D02*
D03*
X4089400Y730080D02*
D03*
D45*
X3362960D02*
D03*
X5326380Y9311640D02*
D03*
X4589400Y730080D02*
D03*
X1851400Y7682800D02*
D03*
D46*
X8725340Y1159780D02*
D03*
X8025340D02*
D03*
D47*
X6550660Y9649460D02*
D03*
X9650660D02*
D03*
X9650060Y2178360D02*
D03*
X6550660Y2149460D02*
D03*
D48*
X6500660Y6509460D02*
D03*
Y6255460D02*
D03*
Y6001460D02*
D03*
Y5747460D02*
D03*
Y5493460D02*
D03*
Y5239460D02*
D03*
Y4985460D02*
D03*
Y4731460D02*
D03*
Y4477460D02*
D03*
Y4223460D02*
D03*
Y3715460D02*
D03*
Y3461460D02*
D03*
Y3207460D02*
D03*
Y2953460D02*
D03*
Y3969460D02*
D03*
D49*
Y2699460D02*
D03*
D50*
X236220Y5859780D02*
D03*
Y6113780D02*
D03*
Y6367780D02*
D03*
D51*
X2012640Y5045519D02*
D03*
Y5299519D02*
D03*
Y5553519D02*
D03*
Y5807519D02*
D03*
Y6061519D02*
D03*
D52*
Y6315519D02*
D03*
D53*
X5546000Y6657340D02*
D03*
D54*
X5800000Y6911340D02*
D03*
X6054000Y6657340D02*
D03*
D55*
X1651400Y8270800D02*
D03*
Y7070800D02*
D03*
D56*
X899160Y8788400D02*
D03*
D57*
X518160Y9296400D02*
D03*
X1153160D02*
D03*
D58*
X2753360Y5067300D02*
D03*
Y5321300D02*
D03*
Y5575300D02*
D03*
D59*
Y5829300D02*
D03*
D60*
X9157062Y266706D02*
D03*
X9141822Y1216666D02*
D03*
D61*
X9157062Y647706D02*
D03*
X9141822Y1597666D02*
D03*
%TF.MD5,fd65fd352eee0655cd140451c96cdd81*%
M02*
